# xmcd
#
# Track frame offsets: 
#        150
#        17100
#        31473
#        48178
#        62534
#        77272
#        90855
#        103746
#
# Disc length: 1568 seconds
#
# Revision: 0
# Processed by: cddbd v1.5.1PL0 Copyright (c) Steve Scherf et al.
# Submitted via: ExactAudioCopy v0.95b2
#
DISCID=4e061e08
DTITLE=Lee Greenwood - Somebody's Gonna Love You
DYEAR=2005
DGENRE=Country
TTITLE0=Right on Her Finger and Time on Her Hands
TTITLE1=IOU
TTITLE2=Somebody's Gonna Love You
TTITLE3=Dixie Road
TTITLE4=God Bless the USA
TTITLE5=Hearts Aren't Made to Break
TTITLE6=Touch and Go Crazy
TTITLE7=Amazing Grace
EXTD=
EXTT0=
EXTT1=
EXTT2=
EXTT3=
EXTT4=
EXTT5=
EXTT6=
EXTT7=
PLAYORDER=
